<mxfile host="app.diagrams.net" agent="Mozilla/5.0 (Windows NT 10.0; Win64; x64) AppleWebKit/537.36 (KHTML, like Gecko) Chrome/136.0.0.0 Safari/537.36" version="26.2.14">
  <diagram name="PÃ¡gina-1" id="juZiu6RUJctwYE6Cip0g">
    <mxGraphModel dx="794" dy="402" grid="1" gridSize="10" guides="1" tooltips="1" connect="1" arrows="1" fold="1" page="1" pageScale="1" pageWidth="827" pageHeight="1169" math="0" shadow="0">
      <root>
        <mxCell id="0" />
        <mxCell id="1" parent="0" />
        <mxCell id="lUkcmMobZlCDTdLonf3v-1" value="Mandibula" style="swimlane;fontStyle=0;childLayout=stackLayout;horizontal=1;startSize=30;horizontalStack=0;resizeParent=1;resizeParentMax=0;resizeLast=0;collapsible=1;marginBottom=0;whiteSpace=wrap;html=1;" vertex="1" parent="1">
          <mxGeometry x="160" y="40" width="140" height="60" as="geometry" />
        </mxCell>
        <mxCell id="lUkcmMobZlCDTdLonf3v-22" style="edgeStyle=orthogonalEdgeStyle;rounded=0;orthogonalLoop=1;jettySize=auto;html=1;exitX=0.5;exitY=0;exitDx=0;exitDy=0;entryX=0;entryY=0.5;entryDx=0;entryDy=0;" edge="1" parent="1" source="lUkcmMobZlCDTdLonf3v-5" target="lUkcmMobZlCDTdLonf3v-1">
          <mxGeometry relative="1" as="geometry" />
        </mxCell>
        <mxCell id="lUkcmMobZlCDTdLonf3v-5" value="Mamifero" style="swimlane;fontStyle=0;childLayout=stackLayout;horizontal=1;startSize=30;horizontalStack=0;resizeParent=1;resizeParentMax=0;resizeLast=0;collapsible=1;marginBottom=0;whiteSpace=wrap;html=1;" vertex="1" parent="1">
          <mxGeometry x="60" y="140" width="140" height="60" as="geometry" />
        </mxCell>
        <mxCell id="lUkcmMobZlCDTdLonf3v-6" value="Vehiculo" style="swimlane;fontStyle=0;childLayout=stackLayout;horizontal=1;startSize=30;horizontalStack=0;resizeParent=1;resizeParentMax=0;resizeLast=0;collapsible=1;marginBottom=0;whiteSpace=wrap;html=1;" vertex="1" parent="1">
          <mxGeometry x="480" y="140" width="140" height="60" as="geometry" />
        </mxCell>
        <mxCell id="lUkcmMobZlCDTdLonf3v-7" value="&amp;lt;interface&amp;gt; Volador" style="swimlane;fontStyle=0;childLayout=stackLayout;horizontal=1;startSize=30;horizontalStack=0;resizeParent=1;resizeParentMax=0;resizeLast=0;collapsible=1;marginBottom=0;whiteSpace=wrap;html=1;" vertex="1" parent="1">
          <mxGeometry x="274" y="140" width="140" height="60" as="geometry" />
        </mxCell>
        <mxCell id="lUkcmMobZlCDTdLonf3v-8" value="+volar(): void" style="text;strokeColor=none;fillColor=none;align=left;verticalAlign=middle;spacingLeft=4;spacingRight=4;overflow=hidden;points=[[0,0.5],[1,0.5]];portConstraint=eastwest;rotatable=0;whiteSpace=wrap;html=1;" vertex="1" parent="lUkcmMobZlCDTdLonf3v-7">
          <mxGeometry y="30" width="140" height="30" as="geometry" />
        </mxCell>
        <mxCell id="lUkcmMobZlCDTdLonf3v-21" style="edgeStyle=orthogonalEdgeStyle;rounded=0;orthogonalLoop=1;jettySize=auto;html=1;exitX=0.25;exitY=0;exitDx=0;exitDy=0;entryX=0.5;entryY=1;entryDx=0;entryDy=0;" edge="1" parent="1" source="lUkcmMobZlCDTdLonf3v-11" target="lUkcmMobZlCDTdLonf3v-5">
          <mxGeometry relative="1" as="geometry">
            <mxPoint x="120" y="200" as="targetPoint" />
            <Array as="points">
              <mxPoint x="195" y="221" />
              <mxPoint x="130" y="221" />
            </Array>
          </mxGeometry>
        </mxCell>
        <mxCell id="lUkcmMobZlCDTdLonf3v-11" value="Murcielago" style="swimlane;fontStyle=0;childLayout=stackLayout;horizontal=1;startSize=30;horizontalStack=0;resizeParent=1;resizeParentMax=0;resizeLast=0;collapsible=1;marginBottom=0;whiteSpace=wrap;html=1;" vertex="1" parent="1">
          <mxGeometry x="160" y="240" width="140" height="60" as="geometry" />
        </mxCell>
        <mxCell id="lUkcmMobZlCDTdLonf3v-26" style="edgeStyle=orthogonalEdgeStyle;rounded=0;orthogonalLoop=1;jettySize=auto;html=1;exitX=0.75;exitY=0;exitDx=0;exitDy=0;entryX=0.25;entryY=1;entryDx=0;entryDy=0;" edge="1" parent="1" source="lUkcmMobZlCDTdLonf3v-12" target="lUkcmMobZlCDTdLonf3v-6">
          <mxGeometry relative="1" as="geometry" />
        </mxCell>
        <mxCell id="lUkcmMobZlCDTdLonf3v-33" style="edgeStyle=orthogonalEdgeStyle;rounded=0;orthogonalLoop=1;jettySize=auto;html=1;entryX=0.5;entryY=0;entryDx=0;entryDy=0;dashed=1;" edge="1" parent="1" source="lUkcmMobZlCDTdLonf3v-12" target="lUkcmMobZlCDTdLonf3v-16">
          <mxGeometry relative="1" as="geometry" />
        </mxCell>
        <mxCell id="lUkcmMobZlCDTdLonf3v-12" value="Dron" style="swimlane;fontStyle=0;childLayout=stackLayout;horizontal=1;startSize=30;horizontalStack=0;resizeParent=1;resizeParentMax=0;resizeLast=0;collapsible=1;marginBottom=0;whiteSpace=wrap;html=1;" vertex="1" parent="1">
          <mxGeometry x="380" y="240" width="140" height="60" as="geometry" />
        </mxCell>
        <mxCell id="lUkcmMobZlCDTdLonf3v-13" value="+volar(): void" style="text;strokeColor=none;fillColor=none;align=left;verticalAlign=middle;spacingLeft=4;spacingRight=4;overflow=hidden;points=[[0,0.5],[1,0.5]];portConstraint=eastwest;rotatable=0;whiteSpace=wrap;html=1;" vertex="1" parent="lUkcmMobZlCDTdLonf3v-12">
          <mxGeometry y="30" width="140" height="30" as="geometry" />
        </mxCell>
        <mxCell id="lUkcmMobZlCDTdLonf3v-27" style="edgeStyle=orthogonalEdgeStyle;rounded=0;orthogonalLoop=1;jettySize=auto;html=1;exitX=0.25;exitY=0;exitDx=0;exitDy=0;entryX=0.75;entryY=1;entryDx=0;entryDy=0;" edge="1" parent="1" source="lUkcmMobZlCDTdLonf3v-14" target="lUkcmMobZlCDTdLonf3v-6">
          <mxGeometry relative="1" as="geometry" />
        </mxCell>
        <mxCell id="lUkcmMobZlCDTdLonf3v-14" value="Bicicleta" style="swimlane;fontStyle=0;childLayout=stackLayout;horizontal=1;startSize=30;horizontalStack=0;resizeParent=1;resizeParentMax=0;resizeLast=0;collapsible=1;marginBottom=0;whiteSpace=wrap;html=1;" vertex="1" parent="1">
          <mxGeometry x="600" y="240" width="140" height="60" as="geometry" />
        </mxCell>
        <mxCell id="lUkcmMobZlCDTdLonf3v-16" value="&amp;lt;interface&amp;gt; Recargable" style="swimlane;fontStyle=0;childLayout=stackLayout;horizontal=1;startSize=30;horizontalStack=0;resizeParent=1;resizeParentMax=0;resizeLast=0;collapsible=1;marginBottom=0;whiteSpace=wrap;html=1;" vertex="1" parent="1">
          <mxGeometry x="380" y="340" width="140" height="60" as="geometry" />
        </mxCell>
        <mxCell id="lUkcmMobZlCDTdLonf3v-17" value="+recargar(): void" style="text;strokeColor=none;fillColor=none;align=left;verticalAlign=middle;spacingLeft=4;spacingRight=4;overflow=hidden;points=[[0,0.5],[1,0.5]];portConstraint=eastwest;rotatable=0;whiteSpace=wrap;html=1;" vertex="1" parent="lUkcmMobZlCDTdLonf3v-16">
          <mxGeometry y="30" width="140" height="30" as="geometry" />
        </mxCell>
        <mxCell id="lUkcmMobZlCDTdLonf3v-28" style="edgeStyle=orthogonalEdgeStyle;rounded=0;orthogonalLoop=1;jettySize=auto;html=1;exitX=0.5;exitY=0;exitDx=0;exitDy=0;entryX=0.5;entryY=1;entryDx=0;entryDy=0;" edge="1" parent="1" source="lUkcmMobZlCDTdLonf3v-18" target="lUkcmMobZlCDTdLonf3v-14">
          <mxGeometry relative="1" as="geometry" />
        </mxCell>
        <mxCell id="lUkcmMobZlCDTdLonf3v-18" value="BicicletaElectrica" style="swimlane;fontStyle=0;childLayout=stackLayout;horizontal=1;startSize=30;horizontalStack=0;resizeParent=1;resizeParentMax=0;resizeLast=0;collapsible=1;marginBottom=0;whiteSpace=wrap;html=1;" vertex="1" parent="1">
          <mxGeometry x="600" y="340" width="140" height="60" as="geometry" />
        </mxCell>
        <mxCell id="lUkcmMobZlCDTdLonf3v-19" value="Tablet" style="swimlane;fontStyle=0;childLayout=stackLayout;horizontal=1;startSize=30;horizontalStack=0;resizeParent=1;resizeParentMax=0;resizeLast=0;collapsible=1;marginBottom=0;whiteSpace=wrap;html=1;" vertex="1" parent="1">
          <mxGeometry x="160" y="340" width="140" height="60" as="geometry" />
        </mxCell>
        <mxCell id="lUkcmMobZlCDTdLonf3v-23" style="edgeStyle=orthogonalEdgeStyle;rounded=0;orthogonalLoop=1;jettySize=auto;html=1;exitX=0.75;exitY=0;exitDx=0;exitDy=0;entryX=0.324;entryY=1.011;entryDx=0;entryDy=0;entryPerimeter=0;dashed=1;" edge="1" parent="1" source="lUkcmMobZlCDTdLonf3v-11" target="lUkcmMobZlCDTdLonf3v-8">
          <mxGeometry relative="1" as="geometry" />
        </mxCell>
        <mxCell id="lUkcmMobZlCDTdLonf3v-25" style="edgeStyle=orthogonalEdgeStyle;rounded=0;orthogonalLoop=1;jettySize=auto;html=1;exitX=0.25;exitY=0;exitDx=0;exitDy=0;entryX=0.757;entryY=1;entryDx=0;entryDy=0;entryPerimeter=0;dashed=1;" edge="1" parent="1" source="lUkcmMobZlCDTdLonf3v-12" target="lUkcmMobZlCDTdLonf3v-8">
          <mxGeometry relative="1" as="geometry" />
        </mxCell>
        <mxCell id="lUkcmMobZlCDTdLonf3v-30" style="edgeStyle=orthogonalEdgeStyle;rounded=0;orthogonalLoop=1;jettySize=auto;html=1;exitX=1;exitY=0.5;exitDx=0;exitDy=0;entryX=-0.014;entryY=0.056;entryDx=0;entryDy=0;entryPerimeter=0;dashed=1;" edge="1" parent="1" source="lUkcmMobZlCDTdLonf3v-19" target="lUkcmMobZlCDTdLonf3v-17">
          <mxGeometry relative="1" as="geometry">
            <Array as="points">
              <mxPoint x="350" y="370" />
              <mxPoint x="350" y="372" />
            </Array>
          </mxGeometry>
        </mxCell>
        <mxCell id="lUkcmMobZlCDTdLonf3v-32" style="edgeStyle=orthogonalEdgeStyle;rounded=0;orthogonalLoop=1;jettySize=auto;html=1;exitX=0;exitY=0.5;exitDx=0;exitDy=0;entryX=1;entryY=-0.056;entryDx=0;entryDy=0;entryPerimeter=0;dashed=1;" edge="1" parent="1" source="lUkcmMobZlCDTdLonf3v-18" target="lUkcmMobZlCDTdLonf3v-17">
          <mxGeometry relative="1" as="geometry" />
        </mxCell>
      </root>
    </mxGraphModel>
  </diagram>
</mxfile>
